<?xml version="1.0" encoding="UTF-8" standalone="no"?>
<!DOCTYPE svg PUBLIC "-//W3C//DTD SVG 1.1//EN"
 "http://www.w3.org/Graphics/SVG/1.1/DTD/svg11.dtd">
<!-- Generated by graphviz version 2.38.0 (20140413.2041)
 -->
<!-- Title: NMEA2000 Pages: 1 -->
<svg width="440pt" height="1354pt"
 viewBox="0.00 0.00 440.09 1354.00" xmlns="http://www.w3.org/2000/svg" xmlns:xlink="http://www.w3.org/1999/xlink">
<g id="graph0" class="graph" transform="scale(1 1) rotate(0) translate(4 1350)">
<title>NMEA2000</title>
<polygon fill="white" stroke="none" points="-4,4 -4,-1350 436.089,-1350 436.089,4 -4,4"/>
<g id="clust1" class="cluster"><title>cluster_nav_station_t_connectors</title>
<polygon fill="none" stroke="black" points="8,-723 8,-1302 172,-1302 172,-723 8,-723"/>
<text text-anchor="middle" x="90" y="-1286.8" font-family="Times New Roman,serif" font-size="14.00">Nav Station T Connectors</text>
</g>
<g id="clust2" class="cluster"><title>cluster_binnacle_t_connectors</title>
<polygon fill="none" stroke="black" points="27,-64 27,-715 173,-715 173,-64 27,-64"/>
<text text-anchor="middle" x="100" y="-699.8" font-family="Times New Roman,serif" font-size="14.00">Binnacle T Connectors</text>
</g>
<!-- NS End 1 -->
<g id="node1" class="node"><title>NS End 1</title>
<ellipse fill="none" stroke="black" cx="118" cy="-1253" rx="46.2923" ry="18"/>
<text text-anchor="middle" x="118" y="-1249.3" font-family="Times New Roman,serif" font-size="14.00">NS End 1</text>
</g>
<!-- NS T1 -->
<g id="node2" class="node"><title>NS T1</title>
<ellipse fill="none" stroke="black" cx="127" cy="-1181" rx="35.194" ry="18"/>
<text text-anchor="middle" x="127" y="-1177.3" font-family="Times New Roman,serif" font-size="14.00">NS T1</text>
</g>
<!-- NS End 1&#45;&#45;NS T1 -->
<g id="edge1" class="edge"><title>NS End 1&#45;&#45;NS T1</title>
<path fill="none" stroke="black" d="M120.225,-1234.7C121.62,-1223.85 123.411,-1209.92 124.801,-1199.1"/>
</g>
<!-- NS T2 -->
<g id="node3" class="node"><title>NS T2</title>
<ellipse fill="none" stroke="black" cx="127" cy="-1109" rx="35.194" ry="18"/>
<text text-anchor="middle" x="127" y="-1105.3" font-family="Times New Roman,serif" font-size="14.00">NS T2</text>
</g>
<!-- NS T1&#45;&#45;NS T2 -->
<g id="edge2" class="edge"><title>NS T1&#45;&#45;NS T2</title>
<path fill="none" stroke="black" d="M127,-1162.7C127,-1151.85 127,-1137.92 127,-1127.1"/>
</g>
<!-- Fresh Water Tank Level Sensor -->
<g id="node19" class="node"><title>Fresh Water Tank Level Sensor</title>
<ellipse fill="none" stroke="black" cx="306" cy="-1109" rx="126.178" ry="18"/>
<text text-anchor="middle" x="306" y="-1105.3" font-family="Times New Roman,serif" font-size="14.00">Fresh Water Tank Level Sensor</text>
</g>
<!-- NS T1&#45;&#45;Fresh Water Tank Level Sensor -->
<g id="edge17" class="edge"><title>NS T1&#45;&#45;Fresh Water Tank Level Sensor</title>
<path fill="none" stroke="black" d="M154.186,-1169.37C183.625,-1157.86 230.919,-1139.36 264.9,-1126.07"/>
</g>
<!-- NS T3 -->
<g id="node4" class="node"><title>NS T3</title>
<ellipse fill="none" stroke="black" cx="127" cy="-1037" rx="35.194" ry="18"/>
<text text-anchor="middle" x="127" y="-1033.3" font-family="Times New Roman,serif" font-size="14.00">NS T3</text>
</g>
<!-- NS T2&#45;&#45;NS T3 -->
<g id="edge3" class="edge"><title>NS T2&#45;&#45;NS T3</title>
<path fill="none" stroke="black" d="M127,-1090.7C127,-1079.85 127,-1065.92 127,-1055.1"/>
</g>
<!-- Depth/Speed/Temp Sensor -->
<g id="node20" class="node"><title>Depth/Speed/Temp Sensor</title>
<ellipse fill="none" stroke="black" cx="290" cy="-1037" rx="109.681" ry="18"/>
<text text-anchor="middle" x="290" y="-1033.3" font-family="Times New Roman,serif" font-size="14.00">Depth/Speed/Temp Sensor</text>
</g>
<!-- NS T2&#45;&#45;Depth/Speed/Temp Sensor -->
<g id="edge18" class="edge"><title>NS T2&#45;&#45;Depth/Speed/Temp Sensor</title>
<path fill="none" stroke="black" d="M153.189,-1096.75C180.097,-1085.2 222.235,-1067.1 252.638,-1054.05"/>
</g>
<!-- NS T4 -->
<g id="node5" class="node"><title>NS T4</title>
<ellipse fill="none" stroke="black" cx="127" cy="-965" rx="35.194" ry="18"/>
<text text-anchor="middle" x="127" y="-961.3" font-family="Times New Roman,serif" font-size="14.00">NS T4</text>
</g>
<!-- NS T3&#45;&#45;NS T4 -->
<g id="edge4" class="edge"><title>NS T3&#45;&#45;NS T4</title>
<path fill="none" stroke="black" d="M127,-1018.7C127,-1007.85 127,-993.917 127,-983.104"/>
</g>
<!-- Power In -->
<g id="node21" class="node"><title>Power In</title>
<ellipse fill="none" stroke="black" cx="224" cy="-965" rx="44.393" ry="18"/>
<text text-anchor="middle" x="224" y="-961.3" font-family="Times New Roman,serif" font-size="14.00">Power In</text>
</g>
<!-- NS T3&#45;&#45;Power In -->
<g id="edge19" class="edge"><title>NS T3&#45;&#45;Power In</title>
<path fill="none" stroke="black" d="M146.629,-1021.83C163.016,-1010.01 186.315,-993.196 203.057,-981.114"/>
</g>
<!-- NS T5 -->
<g id="node6" class="node"><title>NS T5</title>
<ellipse fill="none" stroke="black" cx="127" cy="-893" rx="35.194" ry="18"/>
<text text-anchor="middle" x="127" y="-889.3" font-family="Times New Roman,serif" font-size="14.00">NS T5</text>
</g>
<!-- NS T4&#45;&#45;NS T5 -->
<g id="edge5" class="edge"><title>NS T4&#45;&#45;NS T5</title>
<path fill="none" stroke="black" d="M127,-946.697C127,-935.846 127,-921.917 127,-911.104"/>
</g>
<!-- VHF Radio -->
<g id="node22" class="node"><title>VHF Radio</title>
<ellipse fill="none" stroke="black" cx="233" cy="-893" rx="53.0913" ry="18"/>
<text text-anchor="middle" x="233" y="-889.3" font-family="Times New Roman,serif" font-size="14.00">VHF Radio</text>
</g>
<!-- NS T4&#45;&#45;VHF Radio -->
<g id="edge20" class="edge"><title>NS T4&#45;&#45;VHF Radio</title>
<path fill="none" stroke="black" d="M147.69,-950.337C165.523,-938.56 191.25,-921.571 209.783,-909.332"/>
</g>
<!-- NS T6 -->
<g id="node7" class="node"><title>NS T6</title>
<ellipse fill="none" stroke="black" cx="127" cy="-821" rx="35.194" ry="18"/>
<text text-anchor="middle" x="127" y="-817.3" font-family="Times New Roman,serif" font-size="14.00">NS T6</text>
</g>
<!-- NS T5&#45;&#45;NS T6 -->
<g id="edge6" class="edge"><title>NS T5&#45;&#45;NS T6</title>
<path fill="none" stroke="black" d="M127,-874.697C127,-863.846 127,-849.917 127,-839.104"/>
</g>
<!-- AIS Radio -->
<g id="node23" class="node"><title>AIS Radio</title>
<ellipse fill="none" stroke="black" cx="230" cy="-821" rx="50.0912" ry="18"/>
<text text-anchor="middle" x="230" y="-817.3" font-family="Times New Roman,serif" font-size="14.00">AIS Radio</text>
</g>
<!-- NS T5&#45;&#45;AIS Radio -->
<g id="edge21" class="edge"><title>NS T5&#45;&#45;AIS Radio</title>
<path fill="none" stroke="black" d="M147.349,-878.17C164.703,-866.376 189.616,-849.446 207.547,-837.259"/>
</g>
<!-- NS End 2 -->
<g id="node8" class="node"><title>NS End 2</title>
<ellipse fill="none" stroke="black" cx="118" cy="-749" rx="46.2923" ry="18"/>
<text text-anchor="middle" x="118" y="-745.3" font-family="Times New Roman,serif" font-size="14.00">NS End 2</text>
</g>
<!-- NS T6&#45;&#45;NS End 2 -->
<g id="edge7" class="edge"><title>NS T6&#45;&#45;NS End 2</title>
<path fill="none" stroke="black" d="M124.775,-802.697C123.38,-791.846 121.589,-777.917 120.199,-767.104"/>
</g>
<!-- Wind Sensor -->
<g id="node24" class="node"><title>Wind Sensor</title>
<ellipse fill="none" stroke="black" cx="241" cy="-749" rx="58.4896" ry="18"/>
<text text-anchor="middle" x="241" y="-745.3" font-family="Times New Roman,serif" font-size="14.00">Wind Sensor</text>
</g>
<!-- NS T6&#45;&#45;Wind Sensor -->
<g id="edge22" class="edge"><title>NS T6&#45;&#45;Wind Sensor</title>
<path fill="none" stroke="black" d="M148.711,-806.669C167.833,-794.927 195.691,-777.821 215.793,-765.478"/>
</g>
<!-- Bin End 1 -->
<g id="node9" class="node"><title>Bin End 1</title>
<ellipse fill="none" stroke="black" cx="118" cy="-666" rx="46.5926" ry="18"/>
<text text-anchor="middle" x="118" y="-662.3" font-family="Times New Roman,serif" font-size="14.00">Bin End 1</text>
</g>
<!-- NS End 2&#45;&#45;Bin End 1 -->
<g id="edge23" class="edge"><title>NS End 2&#45;&#45;Bin End 1</title>
<path fill="none" stroke="black" d="M118,-730.822C118,-717.076 118,-697.893 118,-684.153"/>
</g>
<!-- Bin T1 -->
<g id="node10" class="node"><title>Bin T1</title>
<ellipse fill="none" stroke="black" cx="128" cy="-594" rx="35.9954" ry="18"/>
<text text-anchor="middle" x="128" y="-590.3" font-family="Times New Roman,serif" font-size="14.00">Bin T1</text>
</g>
<!-- Bin End 1&#45;&#45;Bin T1 -->
<g id="edge8" class="edge"><title>Bin End 1&#45;&#45;Bin T1</title>
<path fill="none" stroke="black" d="M120.472,-647.697C122.022,-636.846 124.012,-622.917 125.557,-612.104"/>
</g>
<!-- Bin T2 -->
<g id="node11" class="node"><title>Bin T2</title>
<ellipse fill="none" stroke="black" cx="128" cy="-522" rx="35.9954" ry="18"/>
<text text-anchor="middle" x="128" y="-518.3" font-family="Times New Roman,serif" font-size="14.00">Bin T2</text>
</g>
<!-- Bin T1&#45;&#45;Bin T2 -->
<g id="edge9" class="edge"><title>Bin T1&#45;&#45;Bin T2</title>
<path fill="none" stroke="black" d="M128,-575.697C128,-564.846 128,-550.917 128,-540.104"/>
</g>
<!-- Chartplotter -->
<g id="node25" class="node"><title>Chartplotter</title>
<ellipse fill="none" stroke="black" cx="236" cy="-522" rx="53.8905" ry="18"/>
<text text-anchor="middle" x="236" y="-518.3" font-family="Times New Roman,serif" font-size="14.00">Chartplotter</text>
</g>
<!-- Bin T1&#45;&#45;Chartplotter -->
<g id="edge24" class="edge"><title>Bin T1&#45;&#45;Chartplotter</title>
<path fill="none" stroke="black" d="M149.08,-579.337C167.25,-567.56 193.462,-550.571 212.345,-538.332"/>
</g>
<!-- Bin T3 -->
<g id="node12" class="node"><title>Bin T3</title>
<ellipse fill="none" stroke="black" cx="128" cy="-450" rx="35.9954" ry="18"/>
<text text-anchor="middle" x="128" y="-446.3" font-family="Times New Roman,serif" font-size="14.00">Bin T3</text>
</g>
<!-- Bin T2&#45;&#45;Bin T3 -->
<g id="edge10" class="edge"><title>Bin T2&#45;&#45;Bin T3</title>
<path fill="none" stroke="black" d="M128,-503.697C128,-492.846 128,-478.917 128,-468.104"/>
</g>
<!-- Wind Display -->
<g id="node26" class="node"><title>Wind Display</title>
<ellipse fill="none" stroke="black" cx="242" cy="-450" rx="60.3893" ry="18"/>
<text text-anchor="middle" x="242" y="-446.3" font-family="Times New Roman,serif" font-size="14.00">Wind Display</text>
</g>
<!-- Bin T2&#45;&#45;Wind Display -->
<g id="edge25" class="edge"><title>Bin T2&#45;&#45;Wind Display</title>
<path fill="none" stroke="black" d="M149.711,-507.669C168.833,-495.927 196.691,-478.821 216.793,-466.478"/>
</g>
<!-- Bin T4 -->
<g id="node13" class="node"><title>Bin T4</title>
<ellipse fill="none" stroke="black" cx="128" cy="-378" rx="35.9954" ry="18"/>
<text text-anchor="middle" x="128" y="-374.3" font-family="Times New Roman,serif" font-size="14.00">Bin T4</text>
</g>
<!-- Bin T3&#45;&#45;Bin T4 -->
<g id="edge11" class="edge"><title>Bin T3&#45;&#45;Bin T4</title>
<path fill="none" stroke="black" d="M128,-431.697C128,-420.846 128,-406.917 128,-396.104"/>
</g>
<!-- Small Display 1 -->
<g id="node27" class="node"><title>Small Display 1</title>
<ellipse fill="none" stroke="black" cx="249" cy="-378" rx="67.6881" ry="18"/>
<text text-anchor="middle" x="249" y="-374.3" font-family="Times New Roman,serif" font-size="14.00">Small Display 1</text>
</g>
<!-- Bin T3&#45;&#45;Small Display 1 -->
<g id="edge26" class="edge"><title>Bin T3&#45;&#45;Small Display 1</title>
<path fill="none" stroke="black" d="M150.476,-435.998C170.706,-424.294 200.474,-407.073 221.991,-394.625"/>
</g>
<!-- Bin T5 -->
<g id="node14" class="node"><title>Bin T5</title>
<ellipse fill="none" stroke="black" cx="128" cy="-306" rx="35.9954" ry="18"/>
<text text-anchor="middle" x="128" y="-302.3" font-family="Times New Roman,serif" font-size="14.00">Bin T5</text>
</g>
<!-- Bin T4&#45;&#45;Bin T5 -->
<g id="edge12" class="edge"><title>Bin T4&#45;&#45;Bin T5</title>
<path fill="none" stroke="black" d="M128,-359.697C128,-348.846 128,-334.917 128,-324.104"/>
</g>
<!-- Small Display 2 -->
<g id="node28" class="node"><title>Small Display 2</title>
<ellipse fill="none" stroke="black" cx="249" cy="-306" rx="67.6881" ry="18"/>
<text text-anchor="middle" x="249" y="-302.3" font-family="Times New Roman,serif" font-size="14.00">Small Display 2</text>
</g>
<!-- Bin T4&#45;&#45;Small Display 2 -->
<g id="edge27" class="edge"><title>Bin T4&#45;&#45;Small Display 2</title>
<path fill="none" stroke="black" d="M150.476,-363.998C170.706,-352.294 200.474,-335.073 221.991,-322.625"/>
</g>
<!-- Bin T6 -->
<g id="node15" class="node"><title>Bin T6</title>
<ellipse fill="none" stroke="black" cx="128" cy="-234" rx="35.9954" ry="18"/>
<text text-anchor="middle" x="128" y="-230.3" font-family="Times New Roman,serif" font-size="14.00">Bin T6</text>
</g>
<!-- Bin T5&#45;&#45;Bin T6 -->
<g id="edge13" class="edge"><title>Bin T5&#45;&#45;Bin T6</title>
<path fill="none" stroke="black" d="M128,-287.697C128,-276.846 128,-262.917 128,-252.104"/>
</g>
<!-- Autopilot Display -->
<g id="node29" class="node"><title>Autopilot Display</title>
<ellipse fill="none" stroke="black" cx="256" cy="-234" rx="74.9875" ry="18"/>
<text text-anchor="middle" x="256" y="-230.3" font-family="Times New Roman,serif" font-size="14.00">Autopilot Display</text>
</g>
<!-- Bin T5&#45;&#45;Autopilot Display -->
<g id="edge28" class="edge"><title>Bin T5&#45;&#45;Autopilot Display</title>
<path fill="none" stroke="black" d="M151.477,-292.161C172.84,-280.478 204.437,-263.199 227.294,-250.698"/>
</g>
<!-- Bin T7 -->
<g id="node16" class="node"><title>Bin T7</title>
<ellipse fill="none" stroke="black" cx="128" cy="-162" rx="35.9954" ry="18"/>
<text text-anchor="middle" x="128" y="-158.3" font-family="Times New Roman,serif" font-size="14.00">Bin T7</text>
</g>
<!-- Bin T6&#45;&#45;Bin T7 -->
<g id="edge14" class="edge"><title>Bin T6&#45;&#45;Bin T7</title>
<path fill="none" stroke="black" d="M128,-215.697C128,-204.846 128,-190.917 128,-180.104"/>
</g>
<!-- Autopilot Computer -->
<g id="node30" class="node"><title>Autopilot Computer</title>
<ellipse fill="none" stroke="black" cx="266" cy="-162" rx="83.6854" ry="18"/>
<text text-anchor="middle" x="266" y="-158.3" font-family="Times New Roman,serif" font-size="14.00">Autopilot Computer</text>
</g>
<!-- Bin T6&#45;&#45;Autopilot Computer -->
<g id="edge29" class="edge"><title>Bin T6&#45;&#45;Autopilot Computer</title>
<path fill="none" stroke="black" d="M152.354,-220.647C175.335,-208.99 209.895,-191.459 234.868,-178.792"/>
</g>
<!-- Bin End 2 -->
<g id="node17" class="node"><title>Bin End 2</title>
<ellipse fill="none" stroke="black" cx="117" cy="-90" rx="46.5926" ry="18"/>
<text text-anchor="middle" x="117" y="-86.3" font-family="Times New Roman,serif" font-size="14.00">Bin End 2</text>
</g>
<!-- Bin T7&#45;&#45;Bin End 2 -->
<g id="edge15" class="edge"><title>Bin T7&#45;&#45;Bin End 2</title>
<path fill="none" stroke="black" d="M125.281,-143.697C123.576,-132.846 121.387,-118.917 119.688,-108.104"/>
</g>
<!-- Fuel Tank Level Sensor -->
<g id="node31" class="node"><title>Fuel Tank Level Sensor</title>
<ellipse fill="none" stroke="black" cx="279" cy="-90" rx="96.6831" ry="18"/>
<text text-anchor="middle" x="279" y="-86.3" font-family="Times New Roman,serif" font-size="14.00">Fuel Tank Level Sensor</text>
</g>
<!-- Bin T7&#45;&#45;Fuel Tank Level Sensor -->
<g id="edge30" class="edge"><title>Bin T7&#45;&#45;Fuel Tank Level Sensor</title>
<path fill="none" stroke="black" d="M153.615,-149.125C178.69,-137.502 217.051,-119.718 244.739,-106.883"/>
</g>
<!-- Terminator 2 -->
<g id="node32" class="node"><title>Terminator 2</title>
<ellipse fill="none" stroke="black" cx="117" cy="-18" rx="57.6901" ry="18"/>
<text text-anchor="middle" x="117" y="-14.3" font-family="Times New Roman,serif" font-size="14.00">Terminator 2</text>
</g>
<!-- Bin End 2&#45;&#45;Terminator 2 -->
<g id="edge31" class="edge"><title>Bin End 2&#45;&#45;Terminator 2</title>
<path fill="none" stroke="black" d="M117,-71.6966C117,-60.8463 117,-46.9167 117,-36.1043"/>
</g>
<!-- Terminator 1 -->
<g id="node18" class="node"><title>Terminator 1</title>
<ellipse fill="none" stroke="black" cx="118" cy="-1328" rx="57.6901" ry="18"/>
<text text-anchor="middle" x="118" y="-1324.3" font-family="Times New Roman,serif" font-size="14.00">Terminator 1</text>
</g>
<!-- Terminator 1&#45;&#45;NS End 1 -->
<g id="edge16" class="edge"><title>Terminator 1&#45;&#45;NS End 1</title>
<path fill="none" stroke="black" d="M118,-1309.7C118,-1298.06 118,-1282.79 118,-1271.18"/>
</g>
</g>
</svg>
