<?xml version="1.0" encoding="UTF-8" standalone="no"?>
<!DOCTYPE svg PUBLIC "-//W3C//DTD SVG 1.1//EN"
 "http://www.w3.org/Graphics/SVG/1.1/DTD/svg11.dtd">
<!-- Generated by graphviz version 2.38.0 (20140413.2041)
 -->
<!-- Title: Main Pages: 1 -->
<svg width="1353pt" height="1409pt"
 viewBox="0.00 0.00 1353.44 1409.00" xmlns="http://www.w3.org/2000/svg" xmlns:xlink="http://www.w3.org/1999/xlink">
<g id="graph0" class="graph" transform="scale(1 1) rotate(0) translate(4 1405)">
<title>Main</title>
<polygon fill="white" stroke="none" points="-4,4 -4,-1405 1349.44,-1405 1349.44,4 -4,4"/>
<g id="clust1" class="cluster"><title>cluster_watermaker</title>
<polygon fill="none" stroke="black" points="636.443,-8 636.443,-973 1127.44,-973 1127.44,-8 636.443,-8"/>
<text text-anchor="middle" x="881.943" y="-957.8" font-family="Times New Roman,serif" font-size="14.00">Watermaker</text>
</g>
<!-- Water Tank -->
<g id="node1" class="node"><title>Water Tank</title>
<ellipse fill="none" stroke="black" cx="1242.44" cy="-1383" rx="53.8905" ry="18"/>
<text text-anchor="middle" x="1242.44" y="-1379.3" font-family="Times New Roman,serif" font-size="14.00">Water Tank</text>
</g>
<!-- Water Fill -->
<g id="node2" class="node"><title>Water Fill</title>
<ellipse fill="none" stroke="black" cx="1084.44" cy="-1310" rx="46.2923" ry="18"/>
<text text-anchor="middle" x="1084.44" y="-1306.3" font-family="Times New Roman,serif" font-size="14.00">Water Fill</text>
</g>
<!-- Water Tank&#45;&#45;Water Fill -->
<g id="edge1" class="edge"><title>Water Tank&#45;&#45;Water Fill</title>
<path fill="none" stroke="black" d="M1211.6,-1368.14C1183.23,-1355.39 1141.44,-1336.61 1113.6,-1324.1"/>
</g>
<!-- Strainer -->
<g id="node3" class="node"><title>Strainer</title>
<ellipse fill="none" stroke="black" cx="1186.44" cy="-1310" rx="38.1938" ry="18"/>
<text text-anchor="middle" x="1186.44" y="-1306.3" font-family="Times New Roman,serif" font-size="14.00">Strainer</text>
</g>
<!-- Water Tank&#45;&#45;Strainer -->
<g id="edge2" class="edge"><title>Water Tank&#45;&#45;Strainer</title>
<path fill="none" stroke="black" d="M1229.17,-1365.17C1220.12,-1353.69 1208.19,-1338.57 1199.23,-1327.22"/>
</g>
<!-- Vent -->
<g id="node4" class="node"><title>Vent</title>
<ellipse fill="none" stroke="black" cx="1270.44" cy="-1310" rx="27.8951" ry="18"/>
<text text-anchor="middle" x="1270.44" y="-1306.3" font-family="Times New Roman,serif" font-size="14.00">Vent</text>
</g>
<!-- Water Tank&#45;&#45;Vent -->
<g id="edge3" class="edge"><title>Water Tank&#45;&#45;Vent</title>
<path fill="none" stroke="black" d="M1249.22,-1364.81C1253.69,-1353.49 1259.51,-1338.73 1263.92,-1327.54"/>
</g>
<!-- Watermaker product output -->
<g id="node5" class="node"><title>Watermaker product output</title>
<ellipse fill="none" stroke="black" cx="1006.44" cy="-34" rx="111.581" ry="18"/>
<text text-anchor="middle" x="1006.44" y="-30.3" font-family="Times New Roman,serif" font-size="14.00">Watermaker product output</text>
</g>
<!-- Water Tank&#45;&#45;Watermaker product output -->
<g id="edge4" class="edge"><title>Water Tank&#45;&#45;Watermaker product output</title>
<path fill="none" stroke="black" d="M1283.74,-1371.29C1312.4,-1361.09 1345.44,-1342.49 1345.44,-1311 1345.44,-1311 1345.44,-1311 1345.44,-106 1345.44,-58.3461 1215.49,-42.4843 1116.51,-37.3145"/>
</g>
<!-- Pressure Pump -->
<g id="node6" class="node"><title>Pressure Pump</title>
<ellipse fill="none" stroke="black" cx="1071.44" cy="-1237" rx="65.7887" ry="18"/>
<text text-anchor="middle" x="1071.44" y="-1233.3" font-family="Times New Roman,serif" font-size="14.00">Pressure Pump</text>
</g>
<!-- Strainer&#45;&#45;Pressure Pump -->
<g id="edge5" class="edge"><title>Strainer&#45;&#45;Pressure Pump</title>
<path fill="none" stroke="black" d="M1164.27,-1295.31C1144.95,-1283.38 1116.94,-1266.09 1096.75,-1253.63"/>
</g>
<!-- Carbon Filter -->
<g id="node7" class="node"><title>Carbon Filter</title>
<ellipse fill="none" stroke="black" cx="897.443" cy="-1164" rx="59.2899" ry="18"/>
<text text-anchor="middle" x="897.443" y="-1160.3" font-family="Times New Roman,serif" font-size="14.00">Carbon Filter</text>
</g>
<!-- Pressure Pump&#45;&#45;Carbon Filter -->
<g id="edge6" class="edge"><title>Pressure Pump&#45;&#45;Carbon Filter</title>
<path fill="none" stroke="black" d="M1036.23,-1221.63C1005.65,-1209.15 961.635,-1191.19 931.418,-1178.86"/>
</g>
<!-- Tee 1 -->
<g id="node8" class="node"><title>Tee 1</title>
<ellipse fill="none" stroke="black" cx="783.443" cy="-1091" rx="31.3957" ry="18"/>
<text text-anchor="middle" x="783.443" y="-1087.3" font-family="Times New Roman,serif" font-size="14.00">Tee 1</text>
</g>
<!-- Carbon Filter&#45;&#45;Tee 1 -->
<g id="edge7" class="edge"><title>Carbon Filter&#45;&#45;Tee 1</title>
<path fill="none" stroke="black" d="M872.707,-1147.59C852.145,-1134.79 823.23,-1116.78 803.942,-1104.77"/>
</g>
<!-- Watermaker Flush Valve -->
<g id="node9" class="node"><title>Watermaker Flush Valve</title>
<ellipse fill="none" stroke="black" cx="783.443" cy="-1018" rx="100.182" ry="18"/>
<text text-anchor="middle" x="783.443" y="-1014.3" font-family="Times New Roman,serif" font-size="14.00">Watermaker Flush Valve</text>
</g>
<!-- Tee 1&#45;&#45;Watermaker Flush Valve -->
<g id="edge8" class="edge"><title>Tee 1&#45;&#45;Watermaker Flush Valve</title>
<path fill="none" stroke="black" d="M783.443,-1072.81C783.443,-1061.65 783.443,-1047.16 783.443,-1036.03"/>
</g>
<!-- Tee 2 -->
<g id="node10" class="node"><title>Tee 2</title>
<ellipse fill="none" stroke="black" cx="478.443" cy="-1018" rx="31.3957" ry="18"/>
<text text-anchor="middle" x="478.443" y="-1014.3" font-family="Times New Roman,serif" font-size="14.00">Tee 2</text>
</g>
<!-- Tee 1&#45;&#45;Tee 2 -->
<g id="edge9" class="edge"><title>Tee 1&#45;&#45;Tee 2</title>
<path fill="none" stroke="black" d="M755.024,-1083.38C696.906,-1069.86 565.053,-1039.16 506.902,-1025.62"/>
</g>
<!-- WM Flush Timer -->
<g id="node28" class="node"><title>WM Flush Timer</title>
<ellipse fill="none" stroke="black" cx="783.443" cy="-924" rx="73.387" ry="18"/>
<text text-anchor="middle" x="783.443" y="-920.3" font-family="Times New Roman,serif" font-size="14.00">WM Flush Timer</text>
</g>
<!-- Watermaker Flush Valve&#45;&#45;WM Flush Timer -->
<g id="edge33" class="edge"><title>Watermaker Flush Valve&#45;&#45;WM Flush Timer</title>
<path fill="none" stroke="black" d="M783.443,-999.696C783.443,-983.247 783.443,-958.649 783.443,-942.227"/>
</g>
<!-- V&#45;Berth Sink -->
<g id="node11" class="node"><title>V&#45;Berth Sink</title>
<ellipse fill="none" stroke="black" cx="281.443" cy="-486" rx="57.6901" ry="18"/>
<text text-anchor="middle" x="281.443" y="-482.3" font-family="Times New Roman,serif" font-size="14.00">V&#45;Berth Sink</text>
</g>
<!-- Tee 2&#45;&#45;V&#45;Berth Sink -->
<g id="edge10" class="edge"><title>Tee 2&#45;&#45;V&#45;Berth Sink</title>
<path fill="none" stroke="blue" d="M447.228,-1016.19C391.68,-1012.91 281.443,-997.286 281.443,-925 281.443,-925 281.443,-925 281.443,-558 281.443,-539.634 281.443,-518.595 281.443,-504.216"/>
</g>
<!-- Tee 3 -->
<g id="node12" class="node"><title>Tee 3</title>
<ellipse fill="none" stroke="black" cx="478.443" cy="-924" rx="31.3957" ry="18"/>
<text text-anchor="middle" x="478.443" y="-920.3" font-family="Times New Roman,serif" font-size="14.00">Tee 3</text>
</g>
<!-- Tee 2&#45;&#45;Tee 3 -->
<g id="edge11" class="edge"><title>Tee 2&#45;&#45;Tee 3</title>
<path fill="none" stroke="black" d="M478.443,-999.696C478.443,-983.247 478.443,-958.649 478.443,-942.227"/>
</g>
<!-- Aft Supply -->
<g id="node13" class="node"><title>Aft Supply</title>
<ellipse fill="none" stroke="black" cx="408.443" cy="-486" rx="50.8918" ry="18"/>
<text text-anchor="middle" x="408.443" y="-482.3" font-family="Times New Roman,serif" font-size="14.00">Aft Supply</text>
</g>
<!-- Tee 3&#45;&#45;Aft Supply -->
<g id="edge12" class="edge"><title>Tee 3&#45;&#45;Aft Supply</title>
<path fill="none" stroke="blue" d="M489.242,-906.835C497.487,-892.916 507.443,-871.972 507.443,-852 507.443,-852 507.443,-852 507.443,-558 507.443,-526.909 474.8,-508.113 447.003,-497.744"/>
</g>
<!-- Tee 4 -->
<g id="node14" class="node"><title>Tee 4</title>
<ellipse fill="none" stroke="black" cx="448.443" cy="-851" rx="31.3957" ry="18"/>
<text text-anchor="middle" x="448.443" y="-847.3" font-family="Times New Roman,serif" font-size="14.00">Tee 4</text>
</g>
<!-- Tee 3&#45;&#45;Tee 4 -->
<g id="edge13" class="edge"><title>Tee 3&#45;&#45;Tee 4</title>
<path fill="none" stroke="black" d="M471.334,-906.174C466.552,-894.856 460.274,-879.998 455.502,-868.705"/>
</g>
<!-- Kitchen Faucet -->
<g id="node19" class="node"><title>Kitchen Faucet</title>
<ellipse fill="none" stroke="black" cx="562.443" cy="-413" rx="65.7887" ry="18"/>
<text text-anchor="middle" x="562.443" y="-409.3" font-family="Times New Roman,serif" font-size="14.00">Kitchen Faucet</text>
</g>
<!-- Aft Supply&#45;&#45;Kitchen Faucet -->
<g id="edge21" class="edge"><title>Aft Supply&#45;&#45;Kitchen Faucet</title>
<path fill="none" stroke="red" d="M434.409,-470.461C459.659,-458.087 497.996,-440.419 526.217,-428.156"/>
</g>
<!-- Aft Supply&#45;&#45;Kitchen Faucet -->
<g id="edge25" class="edge"><title>Aft Supply&#45;&#45;Kitchen Faucet</title>
<path fill="none" stroke="blue" d="M441.672,-472.142C469.523,-460.114 508.634,-442.133 534.808,-429.356"/>
</g>
<!-- Bathroom Faucet -->
<g id="node20" class="node"><title>Bathroom Faucet</title>
<ellipse fill="none" stroke="black" cx="73.4435" cy="-413" rx="73.387" ry="18"/>
<text text-anchor="middle" x="73.4435" y="-409.3" font-family="Times New Roman,serif" font-size="14.00">Bathroom Faucet</text>
</g>
<!-- Aft Supply&#45;&#45;Bathroom Faucet -->
<g id="edge22" class="edge"><title>Aft Supply&#45;&#45;Bathroom Faucet</title>
<path fill="none" stroke="red" d="M367.533,-475.314C358.246,-472.777 348.502,-470.152 339.443,-468 254.893,-447.914 232.68,-447.941 147.443,-431 139.797,-429.48 131.76,-427.861 123.9,-426.249"/>
</g>
<!-- Aft Supply&#45;&#45;Bathroom Faucet -->
<g id="edge26" class="edge"><title>Aft Supply&#45;&#45;Bathroom Faucet</title>
<path fill="none" stroke="blue" d="M374.866,-472.474C369.09,-470.889 363.132,-469.351 357.443,-468 272.893,-447.914 250.68,-447.941 165.443,-431 154.479,-428.821 142.71,-426.437 131.344,-424.163"/>
</g>
<!-- Bathroom Shower -->
<g id="node21" class="node"><title>Bathroom Shower</title>
<ellipse fill="none" stroke="black" cx="242.443" cy="-413" rx="77.1866" ry="18"/>
<text text-anchor="middle" x="242.443" y="-409.3" font-family="Times New Roman,serif" font-size="14.00">Bathroom Shower</text>
</g>
<!-- Aft Supply&#45;&#45;Bathroom Shower -->
<g id="edge23" class="edge"><title>Aft Supply&#45;&#45;Bathroom Shower</title>
<path fill="none" stroke="red" d="M374.262,-472.633C344.48,-460.674 301.872,-442.512 273.155,-429.573"/>
</g>
<!-- Aft Supply&#45;&#45;Bathroom Shower -->
<g id="edge27" class="edge"><title>Aft Supply&#45;&#45;Bathroom Shower</title>
<path fill="none" stroke="blue" d="M380.776,-470.803C353.724,-458.541 312.491,-440.898 282.005,-428.538"/>
</g>
<!-- Cockpit Shower -->
<g id="node22" class="node"><title>Cockpit Shower</title>
<ellipse fill="none" stroke="black" cx="408.443" cy="-413" rx="70.3881" ry="18"/>
<text text-anchor="middle" x="408.443" y="-409.3" font-family="Times New Roman,serif" font-size="14.00">Cockpit Shower</text>
</g>
<!-- Aft Supply&#45;&#45;Cockpit Shower -->
<g id="edge24" class="edge"><title>Aft Supply&#45;&#45;Cockpit Shower</title>
<path fill="none" stroke="red" d="M402.565,-467.813C401.397,-456.65 401.403,-442.16 402.582,-431.029"/>
</g>
<!-- Aft Supply&#45;&#45;Cockpit Shower -->
<g id="edge28" class="edge"><title>Aft Supply&#45;&#45;Cockpit Shower</title>
<path fill="none" stroke="blue" d="M414.322,-467.813C415.49,-456.65 415.484,-442.16 414.305,-431.029"/>
</g>
<!-- Tempering Valve -->
<g id="node15" class="node"><title>Tempering Valve</title>
<ellipse fill="none" stroke="black" cx="394.443" cy="-632" rx="72.5877" ry="18"/>
<text text-anchor="middle" x="394.443" y="-628.3" font-family="Times New Roman,serif" font-size="14.00">Tempering Valve</text>
</g>
<!-- Tee 4&#45;&#45;Tempering Valve -->
<g id="edge14" class="edge"><title>Tee 4&#45;&#45;Tempering Valve</title>
<path fill="none" stroke="blue" d="M452.682,-832.932C459.403,-802.253 469.698,-736.388 448.443,-687 441.945,-671.899 429.072,-658.757 417.525,-649.22"/>
</g>
<!-- One&#45;way Valve -->
<g id="node16" class="node"><title>One&#45;way Valve</title>
<ellipse fill="none" stroke="black" cx="375.443" cy="-778" rx="66.0889" ry="18"/>
<text text-anchor="middle" x="375.443" y="-774.3" font-family="Times New Roman,serif" font-size="14.00">One&#45;way Valve</text>
</g>
<!-- Tee 4&#45;&#45;One&#45;way Valve -->
<g id="edge15" class="edge"><title>Tee 4&#45;&#45;One&#45;way Valve</title>
<path fill="none" stroke="black" d="M432.962,-834.943C421.076,-823.382 404.679,-807.434 392.432,-795.523"/>
</g>
<!-- Hot Tee -->
<g id="node18" class="node"><title>Hot Tee</title>
<ellipse fill="none" stroke="black" cx="394.443" cy="-559" rx="40.0939" ry="18"/>
<text text-anchor="middle" x="394.443" y="-555.3" font-family="Times New Roman,serif" font-size="14.00">Hot Tee</text>
</g>
<!-- Tempering Valve&#45;&#45;Hot Tee -->
<g id="edge18" class="edge"><title>Tempering Valve&#45;&#45;Hot Tee</title>
<path fill="none" stroke="red" d="M394.443,-613.813C394.443,-602.65 394.443,-588.16 394.443,-577.029"/>
</g>
<!-- Water Heater -->
<g id="node17" class="node"><title>Water Heater</title>
<ellipse fill="none" stroke="black" cx="381.443" cy="-705" rx="58.4896" ry="18"/>
<text text-anchor="middle" x="381.443" y="-701.3" font-family="Times New Roman,serif" font-size="14.00">Water Heater</text>
</g>
<!-- One&#45;way Valve&#45;&#45;Water Heater -->
<g id="edge16" class="edge"><title>One&#45;way Valve&#45;&#45;Water Heater</title>
<path fill="none" stroke="black" d="M376.896,-759.813C377.839,-748.65 379.064,-734.16 380.004,-723.029"/>
</g>
<!-- Water Heater&#45;&#45;Tempering Valve -->
<g id="edge17" class="edge"><title>Water Heater&#45;&#45;Tempering Valve</title>
<path fill="none" stroke="red" d="M384.59,-686.813C386.634,-675.65 389.287,-661.16 391.326,-650.029"/>
</g>
<!-- Hot Tee&#45;&#45;V&#45;Berth Sink -->
<g id="edge20" class="edge"><title>Hot Tee&#45;&#45;V&#45;Berth Sink</title>
<path fill="none" stroke="red" d="M372.118,-543.973C353.08,-532.01 325.748,-514.838 306.076,-502.477"/>
</g>
<!-- Hot Tee&#45;&#45;Aft Supply -->
<g id="edge19" class="edge"><title>Hot Tee&#45;&#45;Aft Supply</title>
<path fill="none" stroke="red" d="M397.832,-540.813C400.034,-529.65 402.891,-515.16 405.086,-504.029"/>
</g>
<!-- Raw Water Seacock -->
<g id="node23" class="node"><title>Raw Water Seacock</title>
<ellipse fill="none" stroke="black" cx="1097.44" cy="-1164" rx="85.2851" ry="18"/>
<text text-anchor="middle" x="1097.44" y="-1160.3" font-family="Times New Roman,serif" font-size="14.00">Raw Water Seacock</text>
</g>
<!-- Raw Water Strainer -->
<g id="node24" class="node"><title>Raw Water Strainer</title>
<ellipse fill="none" stroke="black" cx="1097.44" cy="-1091" rx="81.7856" ry="18"/>
<text text-anchor="middle" x="1097.44" y="-1087.3" font-family="Times New Roman,serif" font-size="14.00">Raw Water Strainer</text>
</g>
<!-- Raw Water Seacock&#45;&#45;Raw Water Strainer -->
<g id="edge29" class="edge"><title>Raw Water Seacock&#45;&#45;Raw Water Strainer</title>
<path fill="none" stroke="black" d="M1097.44,-1145.81C1097.44,-1134.65 1097.44,-1120.16 1097.44,-1109.03"/>
</g>
<!-- Raw Water Tee -->
<g id="node25" class="node"><title>Raw Water Tee</title>
<ellipse fill="none" stroke="black" cx="1097.44" cy="-1018" rx="67.6881" ry="18"/>
<text text-anchor="middle" x="1097.44" y="-1014.3" font-family="Times New Roman,serif" font-size="14.00">Raw Water Tee</text>
</g>
<!-- Raw Water Strainer&#45;&#45;Raw Water Tee -->
<g id="edge30" class="edge"><title>Raw Water Strainer&#45;&#45;Raw Water Tee</title>
<path fill="none" stroke="black" d="M1097.44,-1072.81C1097.44,-1061.65 1097.44,-1047.16 1097.44,-1036.03"/>
</g>
<!-- WM Raw Water Pump -->
<g id="node26" class="node"><title>WM Raw Water Pump</title>
<ellipse fill="none" stroke="black" cx="1020.44" cy="-924" rx="94.7833" ry="18"/>
<text text-anchor="middle" x="1020.44" y="-920.3" font-family="Times New Roman,serif" font-size="14.00">WM Raw Water Pump</text>
</g>
<!-- Raw Water Tee&#45;&#45;WM Raw Water Pump -->
<g id="edge31" class="edge"><title>Raw Water Tee&#45;&#45;WM Raw Water Pump</title>
<path fill="none" stroke="black" d="M1083.32,-1000.13C1069.51,-983.63 1048.6,-958.645 1034.74,-942.079"/>
</g>
<!-- AC Raw Water Pump -->
<g id="node27" class="node"><title>AC Raw Water Pump</title>
<ellipse fill="none" stroke="black" cx="1226.44" cy="-924" rx="90.9839" ry="18"/>
<text text-anchor="middle" x="1226.44" y="-920.3" font-family="Times New Roman,serif" font-size="14.00">AC Raw Water Pump</text>
</g>
<!-- Raw Water Tee&#45;&#45;AC Raw Water Pump -->
<g id="edge32" class="edge"><title>Raw Water Tee&#45;&#45;AC Raw Water Pump</title>
<path fill="none" stroke="black" d="M1119.91,-1000.97C1143.3,-984.295 1179.75,-958.301 1203.36,-941.461"/>
</g>
<!-- WM Raw One&#45;way Valve -->
<g id="node29" class="node"><title>WM Raw One&#45;way Valve</title>
<ellipse fill="none" stroke="black" cx="1014.44" cy="-851" rx="104.782" ry="18"/>
<text text-anchor="middle" x="1014.44" y="-847.3" font-family="Times New Roman,serif" font-size="14.00">WM Raw One&#45;way Valve</text>
</g>
<!-- WM Raw Water Pump&#45;&#45;WM Raw One&#45;way Valve -->
<g id="edge34" class="edge"><title>WM Raw Water Pump&#45;&#45;WM Raw One&#45;way Valve</title>
<path fill="none" stroke="black" d="M1018.99,-905.813C1018.05,-894.65 1016.82,-880.16 1015.88,-869.029"/>
</g>
<!-- AC Compressor -->
<g id="node45" class="node"><title>AC Compressor</title>
<ellipse fill="none" stroke="black" cx="1226.44" cy="-851" rx="71.4873" ry="18"/>
<text text-anchor="middle" x="1226.44" y="-847.3" font-family="Times New Roman,serif" font-size="14.00">AC Compressor</text>
</g>
<!-- AC Raw Water Pump&#45;&#45;AC Compressor -->
<g id="edge52" class="edge"><title>AC Raw Water Pump&#45;&#45;AC Compressor</title>
<path fill="none" stroke="black" d="M1226.44,-905.813C1226.44,-894.65 1226.44,-880.16 1226.44,-869.029"/>
</g>
<!-- WM Fresh One&#45;way Valve -->
<g id="node31" class="node"><title>WM Fresh One&#45;way Valve</title>
<ellipse fill="none" stroke="black" cx="783.443" cy="-851" rx="108.581" ry="18"/>
<text text-anchor="middle" x="783.443" y="-847.3" font-family="Times New Roman,serif" font-size="14.00">WM Fresh One&#45;way Valve</text>
</g>
<!-- WM Flush Timer&#45;&#45;WM Fresh One&#45;way Valve -->
<g id="edge36" class="edge"><title>WM Flush Timer&#45;&#45;WM Fresh One&#45;way Valve</title>
<path fill="none" stroke="black" d="M783.443,-905.813C783.443,-894.65 783.443,-880.16 783.443,-869.029"/>
</g>
<!-- WM Input Water Tee -->
<g id="node30" class="node"><title>WM Input Water Tee</title>
<ellipse fill="none" stroke="black" cx="955.443" cy="-778" rx="89.0842" ry="18"/>
<text text-anchor="middle" x="955.443" y="-774.3" font-family="Times New Roman,serif" font-size="14.00">WM Input Water Tee</text>
</g>
<!-- WM Raw One&#45;way Valve&#45;&#45;WM Input Water Tee -->
<g id="edge35" class="edge"><title>WM Raw One&#45;way Valve&#45;&#45;WM Input Water Tee</title>
<path fill="none" stroke="black" d="M1000.16,-832.813C990.885,-821.65 978.844,-807.16 969.594,-796.029"/>
</g>
<!-- WM Filter 1 -->
<g id="node32" class="node"><title>WM Filter 1</title>
<ellipse fill="none" stroke="black" cx="955.443" cy="-705" rx="55.4913" ry="18"/>
<text text-anchor="middle" x="955.443" y="-701.3" font-family="Times New Roman,serif" font-size="14.00">WM Filter 1</text>
</g>
<!-- WM Input Water Tee&#45;&#45;WM Filter 1 -->
<g id="edge38" class="edge"><title>WM Input Water Tee&#45;&#45;WM Filter 1</title>
<path fill="none" stroke="black" d="M955.443,-759.813C955.443,-748.65 955.443,-734.16 955.443,-723.029"/>
</g>
<!-- WM Fresh One&#45;way Valve&#45;&#45;WM Input Water Tee -->
<g id="edge37" class="edge"><title>WM Fresh One&#45;way Valve&#45;&#45;WM Input Water Tee</title>
<path fill="none" stroke="black" d="M822.044,-834.066C850.767,-822.21 889.749,-806.118 918.154,-794.393"/>
</g>
<!-- WM Filter 2 -->
<g id="node33" class="node"><title>WM Filter 2</title>
<ellipse fill="none" stroke="black" cx="955.443" cy="-632" rx="55.4913" ry="18"/>
<text text-anchor="middle" x="955.443" y="-628.3" font-family="Times New Roman,serif" font-size="14.00">WM Filter 2</text>
</g>
<!-- WM Filter 1&#45;&#45;WM Filter 2 -->
<g id="edge39" class="edge"><title>WM Filter 1&#45;&#45;WM Filter 2</title>
<path fill="none" stroke="black" d="M955.443,-686.813C955.443,-675.65 955.443,-661.16 955.443,-650.029"/>
</g>
<!-- WM Input Pressure Gauge -->
<g id="node34" class="node"><title>WM Input Pressure Gauge</title>
<ellipse fill="none" stroke="black" cx="955.443" cy="-559" rx="108.581" ry="18"/>
<text text-anchor="middle" x="955.443" y="-555.3" font-family="Times New Roman,serif" font-size="14.00">WM Input Pressure Gauge</text>
</g>
<!-- WM Filter 2&#45;&#45;WM Input Pressure Gauge -->
<g id="edge40" class="edge"><title>WM Filter 2&#45;&#45;WM Input Pressure Gauge</title>
<path fill="none" stroke="black" d="M955.443,-613.813C955.443,-602.65 955.443,-588.16 955.443,-577.029"/>
</g>
<!-- WM High Pressure Pump -->
<g id="node35" class="node"><title>WM High Pressure Pump</title>
<ellipse fill="none" stroke="black" cx="955.443" cy="-486" rx="104.782" ry="18"/>
<text text-anchor="middle" x="955.443" y="-482.3" font-family="Times New Roman,serif" font-size="14.00">WM High Pressure Pump</text>
</g>
<!-- WM Input Pressure Gauge&#45;&#45;WM High Pressure Pump -->
<g id="edge41" class="edge"><title>WM Input Pressure Gauge&#45;&#45;WM High Pressure Pump</title>
<path fill="none" stroke="black" d="M955.443,-540.813C955.443,-529.65 955.443,-515.16 955.443,-504.029"/>
</g>
<!-- WM Membrane -->
<g id="node36" class="node"><title>WM Membrane</title>
<ellipse fill="none" stroke="black" cx="955.443" cy="-413" rx="68.4888" ry="18"/>
<text text-anchor="middle" x="955.443" y="-409.3" font-family="Times New Roman,serif" font-size="14.00">WM Membrane</text>
</g>
<!-- WM High Pressure Pump&#45;&#45;WM Membrane -->
<g id="edge42" class="edge"><title>WM High Pressure Pump&#45;&#45;WM Membrane</title>
<path fill="none" stroke="black" d="M955.443,-467.813C955.443,-456.65 955.443,-442.16 955.443,-431.029"/>
</g>
<!-- WM TDS Meter -->
<g id="node37" class="node"><title>WM TDS Meter</title>
<ellipse fill="none" stroke="black" cx="803.443" cy="-326" rx="70.6878" ry="18"/>
<text text-anchor="middle" x="803.443" y="-322.3" font-family="Times New Roman,serif" font-size="14.00">WM TDS Meter</text>
</g>
<!-- WM Membrane&#45;&#45;WM TDS Meter -->
<g id="edge43" class="edge"><title>WM Membrane&#45;&#45;WM TDS Meter</title>
<path fill="none" stroke="black" d="M927.564,-396.41C900.224,-381.121 858.77,-357.939 831.403,-342.635"/>
<text text-anchor="middle" x="912.443" y="-365.8" font-family="Times New Roman,serif" font-size="14.00">Product</text>
</g>
<!-- WM High Pressure Gauge -->
<g id="node38" class="node"><title>WM High Pressure Gauge</title>
<ellipse fill="none" stroke="black" cx="998.443" cy="-326" rx="106.681" ry="18"/>
<text text-anchor="middle" x="998.443" y="-322.3" font-family="Times New Roman,serif" font-size="14.00">WM High Pressure Gauge</text>
</g>
<!-- WM Membrane&#45;&#45;WM High Pressure Gauge -->
<g id="edge44" class="edge"><title>WM Membrane&#45;&#45;WM High Pressure Gauge</title>
<path fill="none" stroke="black" d="M964.145,-394.799C971.605,-380.052 982.298,-358.915 989.755,-344.175"/>
<text text-anchor="middle" x="998.443" y="-365.8" font-family="Times New Roman,serif" font-size="14.00">Waste</text>
</g>
<!-- WM Flow Meter -->
<g id="node41" class="node"><title>WM Flow Meter</title>
<ellipse fill="none" stroke="black" cx="803.443" cy="-253" rx="71.4873" ry="18"/>
<text text-anchor="middle" x="803.443" y="-249.3" font-family="Times New Roman,serif" font-size="14.00">WM Flow Meter</text>
</g>
<!-- WM TDS Meter&#45;&#45;WM Flow Meter -->
<g id="edge47" class="edge"><title>WM TDS Meter&#45;&#45;WM Flow Meter</title>
<path fill="none" stroke="black" d="M803.443,-307.813C803.443,-296.65 803.443,-282.16 803.443,-271.029"/>
</g>
<!-- WM Needle Valve -->
<g id="node39" class="node"><title>WM Needle Valve</title>
<ellipse fill="none" stroke="black" cx="998.443" cy="-253" rx="77.1866" ry="18"/>
<text text-anchor="middle" x="998.443" y="-249.3" font-family="Times New Roman,serif" font-size="14.00">WM Needle Valve</text>
</g>
<!-- WM High Pressure Gauge&#45;&#45;WM Needle Valve -->
<g id="edge45" class="edge"><title>WM High Pressure Gauge&#45;&#45;WM Needle Valve</title>
<path fill="none" stroke="black" d="M998.443,-307.813C998.443,-296.65 998.443,-282.16 998.443,-271.029"/>
</g>
<!-- Overboard 2 -->
<g id="node40" class="node"><title>Overboard 2</title>
<ellipse fill="none" stroke="black" cx="998.443" cy="-180" rx="57.3905" ry="18"/>
<text text-anchor="middle" x="998.443" y="-176.3" font-family="Times New Roman,serif" font-size="14.00">Overboard 2</text>
</g>
<!-- WM Needle Valve&#45;&#45;Overboard 2 -->
<g id="edge46" class="edge"><title>WM Needle Valve&#45;&#45;Overboard 2</title>
<path fill="none" stroke="black" d="M998.443,-234.813C998.443,-223.65 998.443,-209.16 998.443,-198.029"/>
</g>
<!-- WM Product Tee -->
<g id="node42" class="node"><title>WM Product Tee</title>
<ellipse fill="none" stroke="black" cx="803.443" cy="-180" rx="75.2868" ry="18"/>
<text text-anchor="middle" x="803.443" y="-176.3" font-family="Times New Roman,serif" font-size="14.00">WM Product Tee</text>
</g>
<!-- WM Flow Meter&#45;&#45;WM Product Tee -->
<g id="edge48" class="edge"><title>WM Flow Meter&#45;&#45;WM Product Tee</title>
<path fill="none" stroke="black" d="M803.443,-234.813C803.443,-223.65 803.443,-209.16 803.443,-198.029"/>
</g>
<!-- WM Product Discard Valve -->
<g id="node43" class="node"><title>WM Product Discard Valve</title>
<ellipse fill="none" stroke="black" cx="756.443" cy="-107" rx="112.38" ry="18"/>
<text text-anchor="middle" x="756.443" y="-103.3" font-family="Times New Roman,serif" font-size="14.00">WM Product Discard Valve</text>
</g>
<!-- WM Product Tee&#45;&#45;WM Product Discard Valve -->
<g id="edge49" class="edge"><title>WM Product Tee&#45;&#45;WM Product Discard Valve</title>
<path fill="none" stroke="black" d="M792.305,-162.174C784.922,-151.02 775.262,-136.428 767.828,-125.198"/>
</g>
<!-- WM Product To Tank Valve -->
<g id="node44" class="node"><title>WM Product To Tank Valve</title>
<ellipse fill="none" stroke="black" cx="1003.44" cy="-107" rx="116.18" ry="18"/>
<text text-anchor="middle" x="1003.44" y="-103.3" font-family="Times New Roman,serif" font-size="14.00">WM Product To Tank Valve</text>
</g>
<!-- WM Product Tee&#45;&#45;WM Product To Tank Valve -->
<g id="edge50" class="edge"><title>WM Product Tee&#45;&#45;WM Product To Tank Valve</title>
<path fill="none" stroke="black" d="M843.916,-164.632C877.36,-152.76 924.77,-135.929 959.208,-123.704"/>
</g>
<!-- WM Product To Tank Valve&#45;&#45;Watermaker product output -->
<g id="edge51" class="edge"><title>WM Product To Tank Valve&#45;&#45;Watermaker product output</title>
<path fill="none" stroke="black" d="M1004.17,-88.8129C1004.64,-77.6499 1005.25,-63.1602 1005.72,-52.0288"/>
</g>
<!-- Overboard 1 -->
<g id="node46" class="node"><title>Overboard 1</title>
<ellipse fill="none" stroke="black" cx="1226.44" cy="-778" rx="57.3905" ry="18"/>
<text text-anchor="middle" x="1226.44" y="-774.3" font-family="Times New Roman,serif" font-size="14.00">Overboard 1</text>
</g>
<!-- AC Compressor&#45;&#45;Overboard 1 -->
<g id="edge53" class="edge"><title>AC Compressor&#45;&#45;Overboard 1</title>
<path fill="none" stroke="black" d="M1226.44,-832.813C1226.44,-821.65 1226.44,-807.16 1226.44,-796.029"/>
</g>
</g>
</svg>
